#!OML:ASF E:\emotionWalksFemale\Project 1\Capture day 1\Session 1\Female1.ASF
:FULLY-SPECIFIED
:DEGREES
1450
root 10.2439 15.5997 -19.8805 -0.639509 -7.34622 360.689
lowerback 5.13261 0.889387 3.90603
upperback -6.60801 1.65992 0.948231
thorax -9.82812 0.559996 -1.40055
lowerneck -5.44265 0.887901 -0.156295
upperneck 7.3428 1.22674 -0.274052
head 3.31853 0.593308 -0.00617235
rclavicle -1.39149e-014 -7.15625e-015
rhumerus -34.6974 -6.68652 -76.4021
rradius 40.206
rwrist 11.9199
rhand 3.20498 -55.5254
rfingers 7.12502
rthumb 28.6564 -83.3477
lclavicle -1.39149e-014 -7.15625e-015
lhumerus -54.5632 15.685 68.0426
lradius 33.1348
lwrist -20.195
lhand 0.795719 -31.9298
lfingers 7.12502
lthumb 26.3523 -3.74076
rfemur 14.6488 2.06837 24.4818
rtibia 31.3471
rfoot 8.77772 -18.0501
rtoes 6.51755
lfemur -14.9234 -12.9494 -24.7978
ltibia 20.6764
lfoot -17.2734 22.5698
ltoes 6.92617
1451
root 10.2693 15.6059 -19.7512 -0.857832 -7.12772 360.891
lowerback 5.20562 0.847999 3.82663
upperback -6.52997 1.58976 0.853941
thorax -9.78724 0.529404 -1.4484
lowerneck -5.49944 0.853706 0.0568159
upperneck 7.229 1.18457 -0.554795
head 3.2938 0.567428 -0.136774
rclavicle -1.28216e-014 -1.19271e-014
rhumerus -35.122 -6.83455 -76.0901
rradius 40.0807
rwrist 11.5876
rhand 1.58625 -54.9735
rfingers 7.12502
rthumb 27.1088 -83.0469
lclavicle -1.28216e-014 -1.19271e-014
lhumerus -54.2796 15.7063 67.9772
lradius 33.4867
lwrist -19.632
lhand 1.23608 -32.1755
lfingers 7.12502
lthumb 26.7738 -4.05032
rfemur 13.661 1.40561 23.756
rtibia 33.8651
rfoot 9.8546 -17.7969
rtoes 7.38412
lfemur -13.9831 -12.3703 -25.4274
ltibia 20.2336
lfoot -16.383 22.3295
ltoes 4.32758
1452
root 10.292 15.6135 -19.626 -1.09083 -6.86046 361.128
lowerback 5.37499 0.806909 3.6721
upperback -6.48063 1.51705 0.746268
thorax -9.83707 0.500222 -1.47016
lowerneck -5.51699 0.807038 0.177635
upperneck 7.08061 1.12296 -0.71063
head 3.24785 0.534398 -0.211554
rclavicle 2.21645e-014 1.11319e-014
rhumerus -35.5751 -6.96875 -75.8508
rradius 40.0423
rwrist 11.1089
rhand 0.490843 -55.2631
rfingers 7.12502
rthumb 26.0604 -83.4955
lclavicle 2.21645e-014 1.11319e-014
lhumerus -53.9075 15.4568 68.1702
lradius 33.8271
lwrist -18.8699
lhand 1.34191 -31.8738
lfingers 7.12502
lthumb 26.8751 -3.76415
rfemur 12.6428 0.760215 23.0482
rtibia 36.4334
rfoot 10.849 -17.644
rtoes 8.56196
lfemur -13.0042 -11.8101 -26.059
ltibia 19.6772
lfoot -15.8483 21.8444
ltoes 2.77852
1453
root 10.3149 15.6245 -19.4974 -1.22803 -6.52789 361.407
lowerback 5.4265 0.716086 3.4057
upperback -6.50764 1.36698 0.696594
thorax -9.90824 0.443006 -1.35488
lowerneck -5.32267 0.867904 0.0476453
upperneck 6.91945 1.20595 -0.601896
head 3.15358 0.577161 -0.150879
rclavicle 9.93923e-015 2.14687e-014
rhumerus -36.1045 -7.01506 -75.5048
rradius 40.0448
rwrist 10.9136
rhand 0.324213 -55.7825
rfingers 7.12502
rthumb 25.9009 -84.0383
lclavicle 9.93923e-015 2.14687e-014
lhumerus -53.6999 15.2509 68.4723
lradius 34.2436
lwrist -18.0231
lhand 0.780813 -31.8647
lfingers 7.12502
lthumb 26.338 -3.67353
rfemur 11.4894 0.07346 22.2819
rtibia 39.073
rfoot 12.3174 -17.4159
rtoes 11.7513
lfemur -12.0063 -11.4943 -26.7069
ltibia 18.9285
lfoot -15.4572 21.3551
ltoes 1.91475
1454
root 10.3379 15.6373 -19.3711 -1.34806 -6.38635 361.712
lowerback 5.50523 0.654178 3.09026
upperback -6.54405 1.25386 0.673651
thorax -10.0049 0.408164 -1.1888
lowerneck -5.16551 0.972495 -0.0634678
upperneck 6.8798 1.35116 -0.553145
head 3.10909 0.648642 -0.110303
rclavicle -3.37934e-015 -1.74931e-014
rhumerus -36.6272 -7.06936 -75.0882
rradius 40.0777
rwrist 11.1251
rhand -0.488134 -52.9668
rfingers 7.12502
rthumb 25.1227 -81.3339
lclavicle -3.37934e-015 -1.74931e-014
lhumerus -53.6312 15.2843 68.5415
lradius 34.6003
lwrist -17.3168
lhand -0.0159074 -32.5189
lfingers 7.12502
lthumb 25.5751 -4.21593
rfemur 10.237 -0.417576 21.4726
rtibia 41.7191
rfoot 14.3093 -16.9667
rtoes 16.4839
lfemur -10.9543 -11.309 -27.3557
ltibia 18.0745
lfoot -15.2214 21.1218
ltoes 2.44005
1455
root 10.358 15.6446 -19.2538 -1.54012 -6.39065 362.044
lowerback 5.63415 0.65061 2.74167
upperback -6.41373 1.21008 0.616841
thorax -9.94232 0.412094 -1.04955
lowerneck -5.38333 0.997858 -0.0473579
upperneck 6.82681 1.3949 -0.694975
head 3.13415 0.665122 -0.156132
rclavicle -7.95139e-016 2.38542e-015
rhumerus -36.8698 -7.24533 -74.752
rradius 40.0296
rwrist 11.2926
rhand -0.220695 -54.0139
rfingers 7.12502
rthumb 25.379 -82.3449
lclavicle -7.95139e-016 2.38542e-015
lhumerus -53.1966 15.3478 68.6482
lradius 34.9351
lwrist -16.4872
lhand -0.357551 -32.586
lfingers 7.12502
lthumb 25.2479 -4.23651
rfemur 8.95862 -0.582656 20.757
rtibia 44.3329
rfoot 14.9133 -16.9099
rtoes 15.7493
lfemur -9.84979 -11.11 -28.0027
ltibia 17.1714
lfoot -15.1097 21.0239
ltoes 3.00009
1456
root 10.3775 15.647 -19.1424 -1.77997 -6.36242 362.268
lowerback 5.83523 0.640961 2.53297
upperback -6.22466 1.1726 0.549556
thorax -9.85547 0.408849 -1.00126
lowerneck -5.5003 1.00589 -0.000168985
upperneck 6.46657 1.40749 -0.808743
head 3.03466 0.669297 -0.200758
rclavicle -1.19271e-014 -2.46493e-014
rhumerus -36.9812 -7.53278 -74.4298
rradius 39.9532
rwrist 11.9316
rhand 0.145324 -55.1803
rfingers 7.12502
rthumb 25.7296 -83.4609
lclavicle -1.19271e-014 -2.46493e-014
lhumerus -52.4935 15.2301 68.9981
lradius 35.3525
lwrist -15.3983
lhand -0.432868 -32.0942
lfingers 7.12502
lthumb 25.1757 -3.73449
rfemur 7.69175 -0.681237 20.2334
rtibia 46.8983
rfoot 16.355 -17.0817
rtoes 20.5219
lfemur -8.68738 -10.8461 -28.528
ltibia 16.1486
lfoot -14.5959 21.0695
ltoes 0.609509
1457
root 10.3985 15.6505 -19.0294 -1.99712 -6.40017 362.553
lowerback 6.08328 0.640266 2.23851
upperback -6.16651 1.14273 0.497284
thorax -9.94338 0.412412 -0.891211
lowerneck -5.38932 1.0533 0.0922516
upperneck 6.16912 1.47057 -0.951239
head 2.91478 0.699154 -0.261197
rclavicle -2.64384e-014 -8.74653e-015
rhumerus -37.3067 -7.79896 -74.0207
rradius 39.9188
rwrist 12.9858
rhand 0.668078 -56.3373
rfingers 7.12502
rthumb 26.2301 -84.5445
lclavicle -2.64384e-014 -8.74653e-015
lhumerus -52.0609 14.9885 69.3621
lradius 35.8098
lwrist -14.3547
lhand -0.991491 -31.7296
lfingers 7.12502
lthumb 24.6404 -3.29581
rfemur 6.42275 -0.836882 19.5718
rtibia 49.3582
rfoot 15.3244 -17.5241
rtoes 15.7639
lfemur -7.49044 -10.5899 -29.1249
ltibia 15.092
lfoot -14.1858 21.2504
ltoes -1.77407
1458
root 10.4192 15.6543 -18.9175 -2.14843 -6.46967 363.015
lowerback 6.26733 0.660135 1.71236
upperback -6.10645 1.11072 0.432514
thorax -9.99407 0.431673 -0.663133
lowerneck -5.50284 1.14299 0.144907
upperneck 6.0696 1.59334 -1.06143
head 2.90495 0.757524 -0.300268
rclavicle -1.2921e-014 -3.02153e-014
rhumerus -37.5846 -8.09804 -73.579
rradius 39.684
rwrist 13.347
rhand 0.0924367 -55.1018
rfingers 7.12502
rthumb 25.6789 -83.3898
lclavicle -1.2921e-014 -3.02153e-014
lhumerus -51.6277 14.8863 69.599
lradius 36.1493
lwrist -13.4456
lhand -1.81664 -31.9339
lfingers 7.12502
lthumb 23.8493 -3.39444
rfemur 5.10585 -0.987161 18.7215
rtibia 51.6732
rfoot 19.5746 -18.4974
rtoes 30.6796
lfemur -6.39598 -10.4007 -29.8925
ltibia 14.1016
lfoot -14.1174 21.3751
ltoes -2.26959
1459
root 10.4359 15.6588 -18.8102 -2.25778 -6.49221 363.338
lowerback 6.3336 0.675268 1.31765
upperback -5.97643 1.08174 0.366313
thorax -9.89479 0.444544 -0.508298
lowerneck -5.39488 1.22878 0.0558417
upperneck 5.67953 1.70337 -0.947891
head 2.75088 0.816084 -0.245144
rclavicle -8.54774e-015 1.59028e-014
rhumerus -37.7934 -8.38746 -73.2761
rradius 39.4697
rwrist 13.169
rhand -0.675744 -56.6994
rfingers 7.12502
rthumb 24.943 -85.0915
lclavicle -8.54774e-015 1.59028e-014
lhumerus -50.9802 14.9327 69.6995
lradius 36.3566
lwrist -12.5168
lhand -2.09874 -32.6922
lfingers 7.12502
lthumb 23.5787 -4.11767
rfemur 3.75151 -1.09901 18.134
rtibia 53.8211
rfoot 15.9533 -18.3453
rtoes 18.7139
lfemur -5.35352 -10.2497 -30.4683
ltibia 13.0435
lfoot -13.8432 21.3944
ltoes -3.31521
1460
root 10.4499 15.6618 -18.7015 -2.37145 -6.34291 363.561
lowerback 6.31258 0.630421 1.01675
upperback -5.89026 0.983058 0.317504
thorax -9.79192 0.417008 -0.376231
lowerneck -4.96871 1.26249 0.016124
upperneck 5.21837 1.74396 -0.918685
head 2.51579 0.839562 -0.231198
rclavicle 6.36111e-015 1.27222e-014
rhumerus -38.212 -8.4447 -73.0849
rradius 39.4579
rwrist 12.9735
rhand -1.76036 -53.9442
rfingers 7.12502
rthumb 23.9032 -82.4766
lclavicle 6.36111e-015 1.27222e-014
lhumerus -50.3641 14.9693 69.7903
lradius 36.5309
lwrist -11.7178
lhand -2.33438 -33.4084
lfingers 7.12502
lthumb 23.3526 -4.80501
rfemur 2.45047 -1.35452 17.7002
rtibia 55.8026
rfoot 17.8464 -18.387
rtoes 23.8272
lfemur -4.27995 -10.1877 -30.9399
ltibia 11.9741
lfoot -13.4617 21.4292
ltoes -5.51182
